<svg xmlns="http://www.w3.org/2000/svg" width="26" height="25.071" viewBox="0 0 26 25.071">
  <g id="Group_329" data-name="Group 329" transform="translate(-2 -3)">
    <path id="Path_89" data-name="Path 89" d="M14.624,8.474A.857.857,0,0,0,13,8.857v6.857a.857.857,0,1,0,1.714,0V12.488l1.8,3.61a.857.857,0,0,0,1.624-.383V8.857a.857.857,0,0,0-1.714,0v3.226Z" transform="translate(-0.571 -0.147)" fill="#f0fcfd"/>
    <path id="Path_90" data-name="Path 90" d="M2,3.929A.929.929,0,0,1,2.929,3H27.071A.929.929,0,0,1,28,3.929V20.643a.929.929,0,0,1-.929.929H2.929A.929.929,0,0,1,2,20.643Zm1.857.929V19.714H26.143V4.857ZM2,23.429a.929.929,0,0,1,.929-.929H27.071a.929.929,0,0,1,.929.929v2.786a.929.929,0,0,1-.929.929h-.929a.929.929,0,1,1-1.857,0H5.714a.929.929,0,1,1-1.857,0H2.929A.929.929,0,0,1,2,26.214Zm24.143,1.857H3.857v-.929H26.143Z" fill="#f0fcfd" fill-rule="evenodd"/>
  </g>
</svg>
